<svg xmlns="http://www.w3.org/2000/svg" width="17.79" height="17.79" viewBox="0 0 17.79 17.79">
  <g id="Twitter_Logo_Blue" opacity="0.5">
    <rect id="Rectangle_2" data-name="Rectangle 2" width="17.79" height="17.79" fill="none"/>
    <path id="Path_7" data-name="Path 7" d="M80.595,112.424A10.135,10.135,0,0,0,90.98,102.385c0-.153,0-.3-.011-.456A7.294,7.294,0,0,0,92.79,100.1a7.482,7.482,0,0,1-2.1.555,3.564,3.564,0,0,0,1.6-1.951,7.469,7.469,0,0,1-2.318.856,3.745,3.745,0,0,0-4.385-.694,3.491,3.491,0,0,0-1.835,3.912,10.486,10.486,0,0,1-7.522-3.686,3.46,3.46,0,0,0,1.13,4.71,3.719,3.719,0,0,1-1.657-.442v.045a3.561,3.561,0,0,0,2.928,3.459,3.766,3.766,0,0,1-1.648.061,3.641,3.641,0,0,0,3.41,2.45,7.486,7.486,0,0,1-4.533,1.513,7.681,7.681,0,0,1-.869-.051,10.6,10.6,0,0,0,5.595,1.582" transform="translate(-75 -96.541)" fill="#fff"/>
  </g>
</svg>
